#VRML V2.0 utf8
# 3D model generated by easyeda2kicad.py (https://github.com/uPesy/easyeda2kicad.py)

Shape{
    appearance Appearance {
        material  Material 	{
            diffuseColor 0.14901960784313725 0.14901960784313725 0.14901960784313725
            specularColor 0.07450980392156863 0.07450980392156863 0.07450980392156863
            ambientIntensity 0.2
            transparency 0
            shininess 0.5
        }
    }
    geometry IndexedFaceSet {
        ccw TRUE
        solid FALSE
        coord DEF co Coordinate {
            point [
                -0.4411 -0.1059 0.1969, -0.4411 0.0516 0.1969, -0.4249 0.0908 0.1969, 0.5197 0.2559 0.1969, 0.6083 0.374 0.1969, 0.874 0.126 0.1969, 1.5197 0.2559 0.1969, 1.6083 0.374 0.1969, 1.874 0.126 0.1969, 2.5197 0.2559 0.1969, 2.6083 0.374 0.1969, 2.874 0.126 0.1969, 3.5197 0.2559 0.1969, 3.6083 0.374 0.1969, 3.874 0.126 0.1969, 4.5197 0.2559 0.1969, 4.6083 0.374 0.1969, 4.874 0.126 0.1969, 5.4803 0.2559 0.1969, 5.5 0.2559 0.1969, 5.5 0.0908 0.1969, 5.126 0.126 0.1969, 5.126 0.0908 0.1969, 5.3917 0.374 0.1969, 4.874 0.0908 0.1969, 4.5 0.0908 0.1969, 4.5 0.2559 0.1969, 4.4803 0.2559 0.1969, 4.126 0.126 0.1969, 4.126 0.0908 0.1969, 4.3917 0.374 0.1969, 3.874 0.0908 0.1969, 3.5 0.0908 0.1969, 3.5 0.2559 0.1969, 3.4803 0.2559 0.1969, 3.126 0.126 0.1969, 3.126 0.0908 0.1969, 3.3917 0.374 0.1969, 2.874 0.0908 0.1969, 2.5 0.0908 0.1969, 2.5 0.2559 0.1969, 2.4803 0.2559 0.1969, 2.126 0.126 0.1969, 2.126 0.0908 0.1969, 2.3917 0.374 0.1969, 1.874 0.0908 0.1969, 1.5 0.0908 0.1969, 1.5 0.2559 0.1969, 1.4803 0.2559 0.1969, 1.126 0.126 0.1969, 1.126 0.0908 0.1969, 1.3917 0.374 0.1969, 0.874 0.0908 0.1969, 0.5 0.0908 0.1969, 0.5 0.2559 0.1969, 0.4803 0.2559 0.1969, 0.126 0.126 0.1969, -0.126 0.126 0.1969, -0.1442 0.374 0.1969, 0.126 0.0908 0.1969, 0.3917 0.374 0.1969, -0.126 0.0908 0.1969, -0.1442 0.0908 0.1969, -0.126 -0.126 0.1969, 5.5 -0.2559 0.1969, 5.4803 -0.2559 0.1969, 5.126 -0.126 0.1969, 5.3917 -0.374 0.1969, 4.874 -0.126 0.1969, 4.6083 -0.374 0.1969, 4.5197 -0.2559 0.1969, 4.5 -0.2559 0.1969, 4.4803 -0.2559 0.1969, 4.126 -0.126 0.1969, 4.3917 -0.374 0.1969, 3.874 -0.126 0.1969, 3.6083 -0.374 0.1969, 3.5197 -0.2559 0.1969, 3.5 -0.2559 0.1969, 3.4803 -0.2559 0.1969, 3.126 -0.126 0.1969, 3.3917 -0.374 0.1969, 2.874 -0.126 0.1969, 2.6083 -0.374 0.1969, 2.5197 -0.2559 0.1969, 2.5 -0.2559 0.1969, 2.4803 -0.2559 0.1969, 2.126 -0.126 0.1969, 2.3917 -0.374 0.1969, 1.874 -0.126 0.1969, 1.6083 -0.374 0.1969, 1.5197 -0.2559 0.1969, 1.5 -0.2559 0.1969, 1.4803 -0.2559 0.1969, 1.126 -0.126 0.1969, 1.3917 -0.374 0.1969, 0.874 -0.126 0.1969, 0.6083 -0.374 0.1969, 0.5197 -0.2559 0.1969, 0.5 -0.2559 0.1969, 0.4803 -0.2559 0.1969, 0.126 -0.126 0.1969, 0.3917 -0.374 0.1969, -0.1442 -0.374 0.1969, -0.874 -0.126 0.1969, -0.874 0.0908 0.1969, -0.8655 0.0908 0.1969, -0.874 0.126 0.1969, -1.5 0.0908 0.1969, -1.5 0.2559 0.1969, -1.4803 0.2559 0.1969, -1.4803 -0.2559 0.1969, -1.126 0.0908 0.1969, -1.3917 -0.374 0.1969, -1.126 -0.126 0.1969, -0.8655 -0.374 0.1969, -1.874 0.126 0.1969, -1.6083 0.374 0.1969, -1.5197 0.2559 0.1969, -2.5 0.0908 0.1969, -2.5 0.2559 0.1969, -2.4803 0.2559 0.1969, -1.874 0.0908 0.1969, -2.3917 0.374 0.1969, -2.126 0.126 0.1969, -2.126 0.0908 0.1969, -2.874 0.126 0.1969, -2.6083 0.374 0.1969, -2.5197 0.2559 0.1969, -3.5 0.0908 0.1969, -3.5 0.2559 0.1969, -3.4803 0.2559 0.1969, -2.874 0.0908 0.1969, -3.3917 0.374 0.1969, -3.126 0.126 0.1969, -3.126 0.0908 0.1969, -3.874 0.126 0.1969, -3.6083 0.374 0.1969, -3.5197 0.2559 0.1969, -4.5 0.0908 0.1969, -4.5 0.2559 0.1969, -4.4803 0.2559 0.1969, -3.874 0.0908 0.1969, -4.3917 0.374 0.1969, -4.126 0.126 0.1969, -4.126 0.0908 0.1969, -4.5197 0.2559 0.1969, -4.874 0.0908 0.1969, -4.874 0.126 0.1969, -1.5 -0.2559 0.1969, -1.5197 -0.2559 0.1969, -1.874 -0.126 0.1969, -1.6083 -0.374 0.1969, -2.126 -0.126 0.1969, -2.3917 -0.374 0.1969, -2.4803 -0.2559 0.1969, -2.5 -0.2559 0.1969, -2.5197 -0.2559 0.1969, -2.874 -0.126 0.1969, -2.6083 -0.374 0.1969, -3.126 -0.126 0.1969, -3.3917 -0.374 0.1969, -3.4803 -0.2559 0.1969, -3.5 -0.2559 0.1969, -3.5197 -0.2559 0.1969, -3.874 -0.126 0.1969, -3.6083 -0.374 0.1969, -4.126 -0.126 0.1969, -4.3917 -0.374 0.1969, -4.4803 -0.2559 0.1969, -4.5 -0.2559 0.1969, -4.5197 -0.2559 0.1969, -4.874 -0.126 0.1969, -4.6083 -0.374 0.1969, -5.126 -0.126 0.1969, -5.313 -0.374 0.1969, -5.126 0.0908 0.1969, -5.313 0.0908 0.1969, -5.126 0.126 0.1969, -5.313 0.374 0.1969, -4.6083 0.374 0.1969, -0.2462 0.0908 0.1969, -0.4249 0.3298 0.1969, -0.6083 0.374 0.1969, -0.5197 0.2559 0.1969, -0.6975 0.0908 0.1969, -0.4803 0.2559 0.1969, -5.3917 0.374 0.1969, -5.4803 0.2559 0.1969, -5.5 0.2559 0.1969, -5.5 0.0908 0.1969, -5.5 -0.2559 0.1969, -5.4803 -0.2559 0.1969, -5.3917 -0.374 0.1969, -0.6683 -0.0839 0.1969, -0.4803 -0.2559 0.1969, -0.5197 -0.2559 0.1969, -0.5582 -0.1059 0.1969, -0.5582 0.0516 0.1969, -0.5299 0.0355 0.1969, -0.5299 0.0516 0.1969, -0.6565 -0.0943 0.1969, -0.6446 -0.1004 0.1969, -0.6254 -0.1048 0.1969, -0.607 -0.1059 0.1969, -0.4249 -0.3298 0.1969, -0.5299 -0.0292 0.1969, -0.5299 -0.013 0.1969, -0.4552 -0.013 0.1969, -0.4552 0.0355 0.1969, -0.6152 0.0506 0.1969, -0.6399 0.0459 0.1969, -0.6559 0.0379 0.1969, -0.679 -0.0677 0.1969, -0.6975 -0.374 0.1969, -0.6083 -0.374 0.1969, -0.59 0.0516 0.1969, -0.5299 -0.1059 0.1969, -0.5299 -0.0897 0.1969, -0.4552 -0.0897 0.1969, -0.4552 -0.0292 0.1969, -0.6674 0.0279 0.1969, -0.6774 0.0137 0.1969, -0.684 -0.0028 0.1969, -0.6872 -0.0218 0.1969, -0.6874 -0.0291 0.1969, -0.6852 -0.0502 0.1969, -0.4088 -0.0769 0.1969, -0.3949 -0.0915 0.1969, -0.3945 0.0377 0.1969, -0.3773 0.0481 0.1969, -0.363 0.053 0.1969, -0.3964 -0.0675 0.1969, -0.4088 0.0227 0.1969, -0.4041 0.0285 0.1969, -0.2698 -0.0199 0.1969, -0.2694 -0.0273 0.1969, -0.3392 0.0395 0.1969, -0.2732 -0.0046 0.1969, -0.2968 -0.0999 0.1969, -0.2816 -0.0889 0.1969, -0.2462 -0.374 0.1969, -0.2753 -0.0824 0.1969, -0.2916 0.0419 0.1969, -0.3082 0.0503 0.1969, -0.3275 0.0549 0.1969, -0.34 0.0556 0.1969, -0.285 -0.0701 0.1969, -0.2964 -0.0805 0.1969, -0.2579 -0.0047 0.1969, -0.2643 0.012 0.1969, -0.2752 0.0275 0.1969, -0.3964 0.0132 0.1969, -0.3838 0.0255 0.1969, -0.3877 -0.0763 0.1969, -0.369 0.0338 0.1969, -0.3737 -0.0859 0.1969, -0.3586 -0.0916 0.1969, -0.3205 0.0372 0.1969, -0.3045 0.031 0.1969, -0.2715 -0.0446 0.1969, -0.2765 -0.0577 0.1969, -0.3621 0.0363 0.1969, -0.3447 0.0393 0.1969, -0.3276 -0.0929 0.1969, -0.3116 -0.0888 0.1969, -0.3917 -0.374 0.1969, -0.3402 -0.1099 0.1969, -0.3157 -0.1071 0.1969, -0.2638 -0.0651 0.1969, -0.2575 -0.047 0.1969, -0.2553 -0.0262 0.1969, -0.3401 -0.0938 0.1969, -0.29 0.0208 0.1969, -0.2802 0.0094 0.1969, -0.3786 -0.1017 0.1969, -0.3606 -0.1078 0.1969, -0.3481 -0.1096 0.1969, -0.723 -0.1059 0.1969, -0.7076 -0.1059 0.1969, -0.7823 0.0516 0.1969, -0.7843 0.0516 0.1969, -0.857 -0.1059 0.1969, -0.8416 -0.1059 0.1969, -0.8183 -0.0554 0.1969, -0.7469 -0.0554 0.1969, -0.6975 0.374 0.1969, -0.8655 0.374 0.1969, -1.3917 0.374 0.1969, -1.126 0.126 0.1969, -0.1766 0.0516 0.1969, -0.1766 -0.0897 0.1969, -0.2371 -0.0897 0.1969, -0.2371 -0.1059 0.1969, -0.1624 0.0516 0.1969, -0.1624 -0.1059 0.1969, -0.2462 0.374 0.1969, -0.3917 0.374 0.1969, 0.6083 0.374 0.0, 0.6969 0.4921 0.0, 1.3917 0.374 0.0, 1.3031 0.4921 0.0, -0.3917 0.374 0.0, -0.3031 0.4921 0.0, 0.3917 0.374 0.0, 0.3031 0.4921 0.0, 2.6083 0.374 0.0, 2.6969 0.4921 0.0, 3.3917 0.374 0.0, 3.3031 0.4921 0.0, 2.3031 0.4921 0.0, 2.3917 0.374 0.0, 1.6969 0.4921 0.0, 1.6083 0.374 0.0, -3.3917 0.374 0.0, -3.3031 0.4921 0.0, -2.6083 0.374 0.0, -2.6969 0.4921 0.0, -4.3917 0.374 0.0, -4.3031 0.4921 0.0, -3.6083 0.374 0.0, -3.6969 0.4921 0.0, -1.3917 0.374 0.0, -1.3031 0.4921 0.0, -0.6083 0.374 0.0, -0.6969 0.4921 0.0, -1.6969 0.4921 0.0, -1.6083 0.374 0.0, -2.3031 0.4921 0.0, -2.3917 0.374 0.0, 4.3031 0.4921 0.0, 4.3917 0.374 0.0, 3.6969 0.4921 0.0, 3.6083 0.374 0.0, 0.6969 -0.4921 0.0, 0.6083 -0.374 0.0, 1.3031 -0.4921 0.0, 1.3917 -0.374 0.0, -0.3031 -0.4921 0.0, -0.3917 -0.374 0.0, 0.3031 -0.4921 0.0, 0.3917 -0.374 0.0, 2.6969 -0.4921 0.0, 2.6083 -0.374 0.0, 3.3031 -0.4921 0.0, 3.3917 -0.374 0.0, 2.3917 -0.374 0.0, 2.3031 -0.4921 0.0, 1.6083 -0.374 0.0, 1.6969 -0.4921 0.0, -3.3031 -0.4921 0.0, -3.3917 -0.374 0.0, -2.6969 -0.4921 0.0, -2.6083 -0.374 0.0, -4.3031 -0.4921 0.0, -4.3917 -0.374 0.0, -3.6969 -0.4921 0.0, -3.6083 -0.374 0.0, -1.3031 -0.4921 0.0, -1.3917 -0.374 0.0, -0.6969 -0.4921 0.0, -0.6083 -0.374 0.0, -1.6083 -0.374 0.0, -1.6969 -0.4921 0.0, -2.3917 -0.374 0.0, -2.3031 -0.4921 0.0, 4.3917 -0.374 0.0, 4.3031 -0.4921 0.0, 3.6083 -0.374 0.0, 3.6969 -0.4921 0.0, 1.3031 -0.4921 0.9843, 0.6969 -0.4921 0.9843, 0.3031 -0.4921 0.9843, -0.3031 -0.4921 0.9843, 3.3031 -0.4921 0.9843, 2.6969 -0.4921 0.9843, 1.6969 -0.4921 0.9843, 2.3031 -0.4921 0.9843, -2.6969 -0.4921 0.9843, -3.3031 -0.4921 0.9843, -3.6969 -0.4921 0.9843, -4.3031 -0.4921 0.9843, -0.6969 -0.4921 0.9843, -1.3031 -0.4921 0.9843, -2.3031 -0.4921 0.9843, -1.6969 -0.4921 0.9843, 3.6969 -0.4921 0.9843, 4.3031 -0.4921 0.9843, 1.3031 0.4921 0.9843, 0.6969 0.4921 0.9843, 0.3031 0.4921 0.9843, -0.3031 0.4921 0.9843, 3.3031 0.4921 0.9843, 2.6969 0.4921 0.9843, 1.6969 0.4921 0.9843, 2.3031 0.4921 0.9843, -2.6969 0.4921 0.9843, -3.3031 0.4921 0.9843, -3.6969 0.4921 0.9843, -4.3031 0.4921 0.9843, -0.6969 0.4921 0.9843, -1.3031 0.4921 0.9843, -2.3031 0.4921 0.9843, -1.6969 0.4921 0.9843, 3.6969 0.4921 0.9843, 4.3031 0.4921 0.9843, -5.3031 0.4921 0.0, -4.6969 0.4921 0.0, -5.3917 0.374 0.0, -4.6083 0.374 0.0, 4.6083 0.374 0.0, 4.6969 0.4921 0.0, 5.3917 0.374 0.0, 5.3031 0.4921 0.0, 4.6969 -0.4921 0.0, 4.6083 -0.374 0.0, 5.3031 -0.4921 0.0, 5.3917 -0.374 0.0, -4.6969 0.4921 0.9843, -5.3031 0.4921 0.9843, 5.3031 -0.4921 0.9843, 4.6969 -0.4921 0.9843, 5.5 0.2559 0.9843, 5.5 0.25 0.1969, 5.5 -0.2559 0.9843, 5.3031 0.4921 0.9843, 4.6969 0.4921 0.9843, -5.5 -0.2559 0.9843, -5.5 0.2559 0.9843, -5.3031 -0.4921 0.0, -4.6969 -0.4921 0.0, -5.3031 -0.4921 0.9843, -4.6969 -0.4921 0.9843, 5.4803 0.2559 0.9843, 5.313 0.479 0.9843, 5.313 -0.3091 0.9843, 1.126 0.126 0.9843, 1.5197 0.2559 0.9843, 1.4803 0.2559 0.9843, 0.5197 0.2559 0.9843, 0.874 -0.126 0.9843, 0.874 0.126 0.9843, 1.874 0.126 0.9843, 1.5197 -0.2559 0.9843, 1.874 -0.126 0.9843, 1.5595 -0.3091 0.9843, 2.126 -0.126 0.9843, 3.126 -0.126 0.9843, 2.874 -0.126 0.9843, 2.5595 -0.3091 0.9843, 2.5197 0.2559 0.9843, 2.874 0.126 0.9843, 3.126 0.126 0.9843, 3.4803 0.2559 0.9843, 2.5197 -0.2559 0.9843, 2.5 -0.2559 0.9843, 2.5 0.2559 0.9843, 2.4803 -0.2559 0.9843, 2.4803 0.2559 0.9843, 2.4405 -0.3091 0.9843, 3.5197 0.2559 0.9843, 3.874 -0.126 0.9843, 3.874 0.126 0.9843, 4.126 0.126 0.9843, 4.4803 0.2559 0.9843, 4.126 -0.126 0.9843, 3.4405 -0.3091 0.9843, 3.4803 -0.2559 0.9843, 3.5 0.2559 0.9843, 3.5 -0.2559 0.9843, 3.5197 -0.2559 0.9843, 3.5595 -0.3091 0.9843, 4.5197 0.2559 0.9843, 4.874 -0.126 0.9843, 4.874 0.126 0.9843, 5.126 0.126 0.9843, 4.4405 -0.3091 0.9843, 4.4803 -0.2559 0.9843, 4.5 0.2559 0.9843, 4.5 -0.2559 0.9843, 4.5197 -0.2559 0.9843, 4.5595 -0.3091 0.9843, 5.126 -0.126 0.9843, 5.313 -0.479 0.9843, 5.4405 -0.3091 0.9843, 5.4803 -0.2559 0.9843, 0.5595 -0.3091 0.9843, 1.4405 -0.3091 0.9843, 0.126 0.126 0.9843, -0.126 0.126 0.9843, -0.126 -0.126 0.9843, -0.4803 0.2559 0.9843, 0.4803 0.2559 0.9843, 0.4803 -0.2559 0.9843, 0.5 0.2559 0.9843, 0.5 -0.2559 0.9843, 0.5197 -0.2559 0.9843, 1.126 -0.126 0.9843, 1.4803 -0.2559 0.9843, 2.126 0.126 0.9843, -0.4405 -0.3091 0.9843, 0.4405 -0.3091 0.9843, -0.874 0.126 0.9843, -1.126 0.126 0.9843, -1.126 -0.126 0.9843, -1.4803 0.2559 0.9843, 0.126 -0.126 0.9843, -0.4803 -0.2559 0.9843, -0.5 -0.2559 0.9843, -0.5 0.2559 0.9843, -0.5197 -0.2559 0.9843, -0.5197 0.2559 0.9843, -1.4405 -0.3091 0.9843, -0.5595 -0.3091 0.9843, -2.4803 0.2559 0.9843, -2.126 -0.126 0.9843, -2.126 0.126 0.9843, -1.874 0.126 0.9843, -1.5197 0.2559 0.9843, -1.874 -0.126 0.9843, -2.4405 -0.3091 0.9843, -1.5595 -0.3091 0.9843, -3.4803 0.2559 0.9843, -3.126 -0.126 0.9843, -3.126 0.126 0.9843, -2.874 0.126 0.9843, -2.5197 0.2559 0.9843, -2.874 -0.126 0.9843, -3.4405 -0.3091 0.9843, -2.5595 -0.3091 0.9843, -4.4803 0.2559 0.9843, -4.126 -0.126 0.9843, -4.126 0.126 0.9843, -3.874 0.126 0.9843, -3.5197 0.2559 0.9843, -3.874 -0.126 0.9843, -4.4405 -0.3091 0.9843, -3.5595 -0.3091 0.9843, -5.4803 -0.2559 0.9843, -5.4405 -0.3091 0.9843, -5.126 -0.126 0.9843, -4.874 -0.126 0.9843, -5.4803 0.2559 0.9843, -5.126 0.126 0.9843, -4.874 0.126 0.9843, -4.5197 0.2559 0.9843, -0.874 -0.126 0.9843, -1.4803 -0.2559 0.9843, -1.5 -0.2559 0.9843, -1.5 0.2559 0.9843, -1.5197 -0.2559 0.9843, -2.4803 -0.2559 0.9843, -2.5 -0.2559 0.9843, -2.5 0.2559 0.9843, -2.5197 -0.2559 0.9843, -3.4803 -0.2559 0.9843, -3.5 -0.2559 0.9843, -3.5 0.2559 0.9843, -3.5197 -0.2559 0.9843, -4.4803 -0.2559 0.9843, -4.5 -0.2559 0.9843, -4.5 0.2559 0.9843, -4.5197 -0.2559 0.9843, -4.5595 -0.3091 0.9843, -4.6083 -0.374 0.0, -5.3917 -0.374 0.0, -5.3917 -0.374 0.0
            ]
        }
        coordIndex [
            0,1,2,-1,3,4,5,-1,6,7,8,-1,9,10,11,-1,12,13,14,-1,15,16,17,-1,18,19,20,-1,17,16,21,-1,20,22,18,-1,18,22,21,-1,18,21,23,-1,23,21,16,-1,17,24,15,-1,15,24,25,-1,15,25,26,-1,26,25,27,-1,14,13,28,-1,25,29,27,-1,27,29,28,-1,27,28,30,-1,30,28,13,-1,14,31,12,-1,12,31,32,-1,12,32,33,-1,33,32,34,-1,11,10,35,-1,32,36,34,-1,34,36,35,-1,34,35,37,-1,37,35,10,-1,11,38,9,-1,9,38,39,-1,9,39,40,-1,40,39,41,-1,8,7,42,-1,39,43,41,-1,41,43,42,-1,41,42,44,-1,44,42,7,-1,8,45,6,-1,6,45,46,-1,6,46,47,-1,47,46,48,-1,5,4,49,-1,46,50,48,-1,48,50,49,-1,48,49,51,-1,51,49,4,-1,5,52,3,-1,3,52,53,-1,3,53,54,-1,54,53,55,-1,56,57,58,-1,53,59,55,-1,55,59,56,-1,55,56,60,-1,60,56,58,-1,57,61,62,-1,62,61,63,-1,20,64,22,-1,22,64,65,-1,22,65,66,-1,66,65,67,-1,66,67,68,-1,68,67,69,-1,68,69,24,-1,24,69,70,-1,24,70,25,-1,25,70,71,-1,25,71,29,-1,29,71,72,-1,29,72,73,-1,73,72,74,-1,73,74,75,-1,75,74,76,-1,75,76,31,-1,31,76,77,-1,31,77,32,-1,32,77,78,-1,32,78,36,-1,36,78,79,-1,36,79,80,-1,80,79,81,-1,80,81,82,-1,82,81,83,-1,82,83,38,-1,38,83,84,-1,38,84,39,-1,39,84,85,-1,39,85,43,-1,43,85,86,-1,43,86,87,-1,87,86,88,-1,87,88,89,-1,89,88,90,-1,89,90,45,-1,45,90,91,-1,45,91,46,-1,46,91,92,-1,46,92,50,-1,50,92,93,-1,50,93,94,-1,94,93,95,-1,94,95,96,-1,96,95,97,-1,96,97,52,-1,52,97,98,-1,52,98,53,-1,53,98,99,-1,53,99,59,-1,59,99,100,-1,59,100,101,-1,101,100,102,-1,101,102,63,-1,63,102,103,-1,63,103,62,-1,104,105,106,-1,106,105,107,-1,108,109,110,-1,111,112,113,-1,113,112,114,-1,113,114,115,-1,115,114,104,-1,116,117,118,-1,119,120,121,-1,109,108,118,-1,118,108,122,-1,118,122,116,-1,117,116,123,-1,123,116,124,-1,123,124,121,-1,121,124,125,-1,121,125,119,-1,126,127,128,-1,129,130,131,-1,120,119,128,-1,128,119,132,-1,128,132,126,-1,127,126,133,-1,133,126,134,-1,133,134,131,-1,131,134,135,-1,131,135,129,-1,136,137,138,-1,139,140,141,-1,130,129,138,-1,138,129,142,-1,138,142,136,-1,137,136,143,-1,143,136,144,-1,143,144,141,-1,141,144,145,-1,141,145,139,-1,140,139,146,-1,146,139,147,-1,146,147,148,-1,108,149,122,-1,122,149,150,-1,122,150,151,-1,151,150,152,-1,151,152,153,-1,153,152,154,-1,153,154,125,-1,125,154,155,-1,125,155,119,-1,119,155,156,-1,119,156,132,-1,132,156,157,-1,132,157,158,-1,158,157,159,-1,158,159,160,-1,160,159,161,-1,160,161,135,-1,135,161,162,-1,135,162,129,-1,129,162,163,-1,129,163,142,-1,142,163,164,-1,142,164,165,-1,165,164,166,-1,165,166,167,-1,167,166,168,-1,167,168,145,-1,145,168,169,-1,145,169,139,-1,139,169,170,-1,139,170,147,-1,147,170,171,-1,147,171,172,-1,172,171,173,-1,172,173,174,-1,174,173,175,-1,174,175,176,-1,176,175,177,-1,176,177,178,-1,178,177,179,-1,178,179,148,-1,148,179,180,-1,148,180,146,-1,181,2,182,-1,183,184,185,-1,185,184,2,-1,2,184,186,-1,2,186,182,-1,187,179,188,-1,188,179,177,-1,188,177,189,-1,189,177,190,-1,191,190,192,-1,192,190,177,-1,192,177,193,-1,193,177,175,-1,194,195,196,-1,197,198,199,-1,199,198,200,-1,194,201,195,-1,195,201,202,-1,195,202,203,-1,203,204,195,-1,195,204,197,-1,195,197,205,-1,206,197,207,-1,207,197,199,-1,207,199,208,-1,208,199,209,-1,210,211,185,-1,185,211,212,-1,213,194,214,-1,214,194,196,-1,214,196,215,-1,1,200,2,-1,2,200,198,-1,2,198,185,-1,185,198,216,-1,185,216,210,-1,0,205,217,-1,217,205,197,-1,217,197,218,-1,218,197,206,-1,218,206,219,-1,219,206,220,-1,212,221,185,-1,185,221,222,-1,185,222,223,-1,223,224,185,-1,185,224,225,-1,185,225,214,-1,214,225,226,-1,214,226,213,-1,0,2,205,-1,205,2,227,-1,205,227,228,-1,229,2,230,-1,230,2,231,-1,232,227,233,-1,233,227,2,-1,233,2,234,-1,234,2,229,-1,235,236,237,-1,235,237,238,-1,239,240,241,-1,241,240,242,-1,243,244,181,-1,181,244,245,-1,181,245,2,-1,2,245,246,-1,2,246,231,-1,237,247,248,-1,249,250,181,-1,181,250,251,-1,181,251,243,-1,233,252,232,-1,232,252,253,-1,232,253,254,-1,254,253,255,-1,254,255,256,-1,256,255,257,-1,237,258,259,-1,236,260,237,-1,237,260,261,-1,237,261,247,-1,262,263,264,-1,264,263,237,-1,264,237,265,-1,265,237,248,-1,266,267,241,-1,241,267,268,-1,241,268,239,-1,242,269,241,-1,241,269,270,-1,241,270,271,-1,262,264,255,-1,255,264,272,-1,255,272,257,-1,259,273,237,-1,237,273,274,-1,237,274,238,-1,228,275,205,-1,205,275,276,-1,205,276,266,-1,266,276,277,-1,266,277,267,-1,278,279,214,-1,214,279,185,-1,185,279,280,-1,185,280,106,-1,106,280,281,-1,106,281,282,-1,104,106,115,-1,115,106,282,-1,115,282,214,-1,214,282,283,-1,214,283,278,-1,278,283,284,-1,278,284,285,-1,183,185,286,-1,286,185,106,-1,286,106,287,-1,287,106,107,-1,287,107,288,-1,288,107,289,-1,288,289,110,-1,110,289,112,-1,110,112,108,-1,108,112,111,-1,108,111,149,-1,290,291,181,-1,181,291,292,-1,181,292,293,-1,290,181,294,-1,294,181,62,-1,294,62,295,-1,295,62,103,-1,295,103,293,-1,293,103,241,-1,293,241,181,-1,181,241,271,-1,181,271,249,-1,57,62,58,-1,58,62,181,-1,58,181,296,-1,296,181,182,-1,296,182,297,-1,298,299,300,-1,300,299,301,-1,302,303,304,-1,304,303,305,-1,306,307,308,-1,308,307,309,-1,310,311,312,-1,312,311,313,-1,314,315,316,-1,316,315,317,-1,318,319,320,-1,320,319,321,-1,322,323,324,-1,324,323,325,-1,326,327,328,-1,328,327,329,-1,330,331,332,-1,332,331,333,-1,334,335,336,-1,336,335,337,-1,338,339,340,-1,340,339,341,-1,342,343,344,-1,344,343,345,-1,346,347,348,-1,348,347,349,-1,350,351,352,-1,352,351,353,-1,354,355,356,-1,356,355,357,-1,358,359,360,-1,360,359,361,-1,362,363,364,-1,364,363,365,-1,366,367,368,-1,368,367,369,-1,370,371,336,-1,336,371,334,-1,372,373,340,-1,340,373,338,-1,374,375,344,-1,344,375,342,-1,349,347,376,-1,376,347,377,-1,378,379,352,-1,352,379,350,-1,380,381,356,-1,356,381,354,-1,382,383,360,-1,360,383,358,-1,365,363,384,-1,384,363,385,-1,369,367,386,-1,386,367,387,-1,301,299,388,-1,388,299,389,-1,305,303,390,-1,390,303,391,-1,309,307,392,-1,392,307,393,-1,394,395,312,-1,312,395,310,-1,317,315,396,-1,396,315,397,-1,321,319,398,-1,398,319,399,-1,325,323,400,-1,400,323,401,-1,402,403,328,-1,328,403,326,-1,404,405,332,-1,332,405,330,-1,51,4,300,-1,300,4,298,-1,60,297,304,-1,304,297,302,-1,37,10,308,-1,308,10,306,-1,313,311,7,-1,7,311,44,-1,127,133,316,-1,316,133,314,-1,137,143,320,-1,320,143,318,-1,183,288,324,-1,324,288,322,-1,329,327,123,-1,123,327,117,-1,333,331,13,-1,13,331,30,-1,337,335,95,-1,95,335,97,-1,341,339,102,-1,102,339,266,-1,345,343,81,-1,81,343,83,-1,90,88,348,-1,348,88,346,-1,353,351,159,-1,159,351,161,-1,357,355,166,-1,166,355,168,-1,361,359,215,-1,215,359,113,-1,154,152,364,-1,364,152,362,-1,76,74,368,-1,368,74,366,-1,406,407,408,-1,408,407,409,-1,410,411,412,-1,412,411,413,-1,414,415,416,-1,416,415,417,-1,407,406,418,-1,418,406,419,-1,420,421,416,-1,416,421,414,-1,19,422,423,-1,423,422,424,-1,423,424,64,-1,413,411,425,-1,425,411,426,-1,191,427,189,-1,189,427,428,-1,429,430,431,-1,431,430,432,-1,433,434,435,-1,436,437,438,-1,389,439,440,-1,438,388,436,-1,436,388,389,-1,436,389,441,-1,441,389,440,-1,442,443,444,-1,444,443,445,-1,444,445,446,-1,447,448,449,-1,450,448,393,-1,393,448,451,-1,393,451,392,-1,392,451,452,-1,392,452,453,-1,453,452,447,-1,449,448,454,-1,454,448,450,-1,454,450,455,-1,455,450,456,-1,455,456,457,-1,457,456,458,-1,457,458,459,-1,460,461,404,-1,404,461,462,-1,404,462,405,-1,405,462,463,-1,405,463,464,-1,464,463,465,-1,447,466,453,-1,453,466,467,-1,453,467,468,-1,468,467,469,-1,468,469,460,-1,460,469,470,-1,460,470,461,-1,461,470,471,-1,461,471,465,-1,472,473,426,-1,426,473,474,-1,426,474,425,-1,425,474,475,-1,465,476,464,-1,464,476,477,-1,464,477,478,-1,478,477,479,-1,478,479,472,-1,472,479,480,-1,472,480,473,-1,473,480,481,-1,473,481,482,-1,482,481,435,-1,482,435,475,-1,475,435,434,-1,475,434,425,-1,421,420,481,-1,481,420,483,-1,481,483,435,-1,435,483,484,-1,435,484,433,-1,433,484,485,-1,433,485,422,-1,422,485,424,-1,465,471,476,-1,476,471,386,-1,476,386,387,-1,447,449,466,-1,466,449,375,-1,466,375,374,-1,376,377,459,-1,486,371,487,-1,487,371,370,-1,488,390,489,-1,489,390,391,-1,489,391,490,-1,490,391,491,-1,492,493,494,-1,494,493,495,-1,494,495,439,-1,439,495,496,-1,439,496,440,-1,440,496,486,-1,440,486,497,-1,497,486,487,-1,497,487,436,-1,436,487,498,-1,436,498,437,-1,437,498,443,-1,437,443,394,-1,394,443,442,-1,394,442,395,-1,395,442,499,-1,395,499,458,-1,458,499,446,-1,458,446,459,-1,459,446,445,-1,459,445,376,-1,500,373,501,-1,501,373,372,-1,502,400,503,-1,503,400,401,-1,503,401,504,-1,504,401,505,-1,492,390,493,-1,493,390,488,-1,493,488,501,-1,501,488,506,-1,501,506,500,-1,500,506,490,-1,500,490,507,-1,507,490,491,-1,507,491,508,-1,508,491,509,-1,508,509,510,-1,510,509,511,-1,512,383,513,-1,513,383,382,-1,514,515,402,-1,402,515,516,-1,402,516,403,-1,403,516,517,-1,403,517,518,-1,518,517,519,-1,520,384,521,-1,521,384,385,-1,522,523,397,-1,397,523,524,-1,397,524,396,-1,396,524,525,-1,396,525,526,-1,526,525,527,-1,528,379,529,-1,529,379,378,-1,530,531,399,-1,399,531,532,-1,399,532,398,-1,398,532,533,-1,398,533,534,-1,534,533,535,-1,536,381,537,-1,537,381,380,-1,538,539,540,-1,540,539,541,-1,542,428,427,-1,427,538,542,-1,542,538,540,-1,542,540,419,-1,419,540,543,-1,419,543,418,-1,418,543,544,-1,418,544,545,-1,545,544,541,-1,511,400,510,-1,510,400,502,-1,510,502,513,-1,513,502,546,-1,513,546,512,-1,512,546,504,-1,512,504,547,-1,547,504,505,-1,547,505,548,-1,548,505,549,-1,548,549,550,-1,550,549,518,-1,550,518,521,-1,521,518,519,-1,521,519,520,-1,520,519,515,-1,520,515,551,-1,551,515,514,-1,551,514,552,-1,552,514,553,-1,552,553,554,-1,554,553,526,-1,554,526,529,-1,529,526,527,-1,529,527,528,-1,528,527,523,-1,528,523,555,-1,555,523,522,-1,555,522,556,-1,556,522,557,-1,556,557,558,-1,558,557,534,-1,558,534,537,-1,537,534,535,-1,537,535,536,-1,536,535,531,-1,536,531,559,-1,559,531,530,-1,559,530,560,-1,560,530,561,-1,560,561,562,-1,562,561,545,-1,562,545,563,-1,563,545,541,-1,541,539,563,-1,563,539,431,-1,563,431,432,-1,430,429,564,-1,564,429,565,-1,406,408,187,-1,188,542,187,-1,187,542,419,-1,187,419,406,-1,189,428,188,-1,188,428,542,-1,409,407,180,-1,180,407,418,-1,180,418,146,-1,146,418,545,-1,530,141,561,-1,561,141,140,-1,561,140,545,-1,545,140,146,-1,169,559,170,-1,170,559,560,-1,170,560,171,-1,171,560,562,-1,430,564,173,-1,171,562,173,-1,173,562,432,-1,173,432,430,-1,565,429,193,-1,193,429,431,-1,193,431,192,-1,192,431,538,-1,192,538,191,-1,191,538,427,-1,180,187,409,-1,409,187,408,-1,23,16,412,-1,412,16,410,-1,417,415,67,-1,67,415,69,-1,193,173,565,-1,565,173,564,-1,
        ]
    }
}
Shape{
    appearance Appearance {
        material  Material 	{
            diffuseColor 0.7529411764705882 0.7529411764705882 0.7529411764705882
            specularColor 0.3764705882352941 0.3764705882352941 0.3764705882352941
            ambientIntensity 0.2
            transparency 0
            shininess 0.5
        }
    }
    geometry IndexedFaceSet {
        ccw TRUE
        solid FALSE
        coord DEF co Coordinate {
            point [
                -5.126 0.0472 -1.1811, -5.126 0.126 -1.1024, -4.874 0.0472 -1.1811, -4.874 0.126 -1.1024, -5.126 -0.0472 -1.1811, -4.874 -0.0472 -1.1811, -5.126 -0.126 -1.1024, -4.874 -0.126 -1.1024, -4.874 0.126 0.1969, -4.874 -0.126 0.1969, -5.126 0.126 0.1969, -5.126 -0.126 0.1969, -4.874 -0.126 0.9843, -4.874 -0.126 3.2677, -5.126 -0.126 0.9843, -5.126 -0.126 3.2677, -5.126 0.126 0.9843, -5.126 0.126 3.2677, -4.874 0.126 0.9843, -4.874 0.126 3.2677, -5.126 -0.0472 3.3465, -5.126 0.0472 3.3465, -4.874 -0.0472 3.3465, -4.874 0.0472 3.3465, -4.874 0.0472 3.3465
            ]
        }
        coordIndex [
            0,1,2,-1,2,1,3,-1,4,0,5,-1,5,0,2,-1,6,4,7,-1,7,4,5,-1,8,9,3,-1,3,9,7,-1,3,7,2,-1,2,7,5,-1,0,4,1,-1,1,4,6,-1,1,6,10,-1,10,6,11,-1,8,3,10,-1,10,3,1,-1,11,6,9,-1,9,6,7,-1,12,13,14,-1,14,13,15,-1,16,17,18,-1,18,17,19,-1,20,21,15,-1,15,21,17,-1,15,17,14,-1,14,17,16,-1,12,18,13,-1,13,18,19,-1,13,19,22,-1,22,19,23,-1,20,15,22,-1,22,15,13,-1,21,20,23,-1,23,20,22,-1,17,21,19,-1,19,21,23,-1,
        ]
    }
}
Shape{
    appearance Appearance {
        material  Material 	{
            diffuseColor 0.14901960784313725 0.14901960784313725 0.14901960784313725
            specularColor 0.07450980392156863 0.07450980392156863 0.07450980392156863
            ambientIntensity 0.2
            transparency 0
            shininess 0.5
        }
    }
    geometry IndexedFaceSet {
        ccw TRUE
        solid FALSE
        coord DEF co Coordinate {
            point [
                -4.3031 0.4921 0.0, -4.3917 0.374 0.0, -4.3917 0.374 0.1969, -4.4803 0.2559 0.1969, -4.4803 0.2559 0.9843, -4.3031 0.4921 0.9843, 4.4803 -0.2559 0.9843, 4.4803 -0.2559 0.1969, 4.5 -0.2559 0.9843, 4.5 -0.2559 0.1969, 4.5197 -0.2559 0.9843, 4.5197 -0.2559 0.1969, 4.3031 -0.4921 0.9843, 4.3031 -0.4921 0.0, 4.3917 -0.374 0.1969, 4.3917 -0.374 0.0, 4.4405 -0.3091 0.9843, 4.6083 -0.374 0.1969, 4.6083 -0.374 0.0, 4.6969 -0.4921 0.0, 4.5595 -0.3091 0.9843, 4.6969 -0.4921 0.9843, 4.3917 0.374 0.0, 4.3031 0.4921 0.0, 4.3917 0.374 0.1969, 4.3031 0.4921 0.9843, 4.4803 0.2559 0.1969, 4.4803 0.2559 0.9843, 4.5197 0.2559 0.9843, 4.5197 0.2559 0.1969, 4.5 0.2559 0.9843, 4.5 0.2559 0.1969, 4.6969 0.4921 0.0, 4.6083 0.374 0.0, 4.6083 0.374 0.1969, 4.6969 0.4921 0.9843, 5.3917 0.374 0.1969, 5.3917 0.374 0.0, 5.3031 0.4921 0.0, 5.4803 0.2559 0.9843, 5.4803 0.2559 0.1969, 5.313 0.479 0.9843, 5.3031 0.4921 0.9843, 5.5 0.2559 0.9843, 5.5 0.2559 0.1969, 5.4803 -0.2559 0.9843, 5.4803 -0.2559 0.1969, 5.5 -0.2559 0.9843, 5.5 -0.2559 0.1969, 5.313 -0.479 0.9843, 5.3031 -0.4921 0.9843, 5.3917 -0.374 0.1969, 5.3031 -0.4921 0.0, 5.3917 -0.374 0.0, 5.4405 -0.3091 0.9843, -1.5197 -0.2559 0.9843, -1.5197 -0.2559 0.1969, -1.5 -0.2559 0.9843, -1.4803 -0.2559 0.1969, -1.4803 -0.2559 0.9843, -1.6969 -0.4921 0.9843, -1.6969 -0.4921 0.0, -1.6083 -0.374 0.1969, -1.6083 -0.374 0.0, -1.5595 -0.3091 0.9843, -1.3917 -0.374 0.1969, -1.3917 -0.374 0.0, -1.3031 -0.4921 0.0, -1.4405 -0.3091 0.9843, -1.3031 -0.4921 0.9843, -1.6083 0.374 0.0, -1.6969 0.4921 0.0, -1.6083 0.374 0.1969, -1.6969 0.4921 0.9843, -1.5197 0.2559 0.1969, -1.5197 0.2559 0.9843, -1.4803 0.2559 0.9843, -1.4803 0.2559 0.1969, -1.5 0.2559 0.9843, -1.3031 0.4921 0.0, -1.3917 0.374 0.0, -1.3917 0.374 0.1969, -1.3031 0.4921 0.9843, -0.5197 -0.2559 0.9843, -0.5197 -0.2559 0.1969, -0.5 -0.2559 0.9843, -0.5 -0.2559 0.1969, -0.4803 -0.2559 0.9843, -0.4803 -0.2559 0.1969, -0.6969 -0.4921 0.9843, -0.6969 -0.4921 0.0, -0.6083 -0.374 0.1969, -0.6083 -0.374 0.0, -0.5595 -0.3091 0.9843, -0.3917 -0.374 0.1969, -0.3917 -0.374 0.0, -0.3031 -0.4921 0.0, -0.4405 -0.3091 0.9843, -0.3031 -0.4921 0.9843, -0.6083 0.374 0.0, -0.6969 0.4921 0.0, -0.6083 0.374 0.1969, -0.6969 0.4921 0.9843, -0.5197 0.2559 0.1969, -0.5197 0.2559 0.9843, -0.4803 0.2559 0.9843, -0.4803 0.2559 0.1969, -0.5 0.2559 0.9843, -0.5 0.2559 0.1969, -0.3031 0.4921 0.0, -0.3917 0.374 0.0, -0.3917 0.374 0.1969, -0.3031 0.4921 0.9843, -4.3917 -0.374 0.1969, -4.3917 -0.374 0.0, -4.3031 -0.4921 0.0, -4.4803 -0.2559 0.9843, -4.4803 -0.2559 0.1969, -4.4405 -0.3091 0.9843, -4.3031 -0.4921 0.9843, -3.5197 -0.2559 0.9843, -3.5197 -0.2559 0.1969, -3.5 -0.2559 0.9843, -3.5 -0.2559 0.1969, -3.4803 -0.2559 0.9843, -3.4803 -0.2559 0.1969, -3.6969 -0.4921 0.9843, -3.6969 -0.4921 0.0, -3.6083 -0.374 0.1969, -3.6083 -0.374 0.0, -3.5595 -0.3091 0.9843, -3.3917 -0.374 0.1969, -3.3917 -0.374 0.0, -3.3031 -0.4921 0.0, -3.4405 -0.3091 0.9843, -3.3031 -0.4921 0.9843, -3.6083 0.374 0.0, -3.6969 0.4921 0.0, -3.6083 0.374 0.1969, -3.6969 0.4921 0.9843, -3.5197 0.2559 0.1969, -3.5197 0.2559 0.9843, -3.4803 0.2559 0.9843, -3.4803 0.2559 0.1969, -3.5 0.2559 0.9843, -3.5 0.2559 0.1969, -3.3031 0.4921 0.0, -3.3917 0.374 0.0, -3.3917 0.374 0.1969, -3.3031 0.4921 0.9843, -2.5197 -0.2559 0.9843, -2.5197 -0.2559 0.1969, -2.5 -0.2559 0.9843, -2.5 -0.2559 0.1969, -2.4803 -0.2559 0.9843, -2.4803 -0.2559 0.1969, -2.6969 -0.4921 0.9843, -2.6969 -0.4921 0.0, -2.6083 -0.374 0.1969, -2.6083 -0.374 0.0, -2.5595 -0.3091 0.9843, -2.3917 -0.374 0.1969, -2.3917 -0.374 0.0, -2.3031 -0.4921 0.0, -2.4405 -0.3091 0.9843, -2.3031 -0.4921 0.9843, -2.6083 0.374 0.0, -2.6969 0.4921 0.0, -2.6083 0.374 0.1969, -2.6969 0.4921 0.9843, -2.5197 0.2559 0.1969, -2.5197 0.2559 0.9843, -2.4803 0.2559 0.9843, -2.4803 0.2559 0.1969, -2.5 0.2559 0.9843, -2.5 0.2559 0.1969, -2.3031 0.4921 0.0, -2.3917 0.374 0.0, -2.3917 0.374 0.1969, -2.3031 0.4921 0.9843, 2.4803 -0.2559 0.9843, 2.4803 -0.2559 0.1969, 2.5 -0.2559 0.9843, 2.5 -0.2559 0.1969, 2.5197 -0.2559 0.9843, 2.5197 -0.2559 0.1969, 2.3031 -0.4921 0.9843, 2.3031 -0.4921 0.0, 2.3917 -0.374 0.1969, 2.3917 -0.374 0.0, 2.4405 -0.3091 0.9843, 2.6083 -0.374 0.1969, 2.6083 -0.374 0.0, 2.6969 -0.4921 0.0, 2.5595 -0.3091 0.9843, 2.6969 -0.4921 0.9843, 2.3917 0.374 0.0, 2.3031 0.4921 0.0, 2.3917 0.374 0.1969, 2.3031 0.4921 0.9843, 2.4803 0.2559 0.1969, 2.4803 0.2559 0.9843, 2.5197 0.2559 0.9843, 2.5197 0.2559 0.1969, 2.5 0.2559 0.9843, 2.5 0.2559 0.1969, 2.6969 0.4921 0.0, 2.6083 0.374 0.0, 2.6083 0.374 0.1969, 2.6969 0.4921 0.9843, 3.4803 -0.2559 0.9843, 3.4803 -0.2559 0.1969, 3.5 -0.2559 0.9843, 3.5 -0.2559 0.1969, 3.5197 -0.2559 0.9843, 3.5197 -0.2559 0.1969, 3.3031 -0.4921 0.9843, 3.3031 -0.4921 0.0, 3.3917 -0.374 0.1969, 3.3917 -0.374 0.0, 3.4405 -0.3091 0.9843, 3.6083 -0.374 0.1969, 3.6083 -0.374 0.0, 3.6969 -0.4921 0.0, 3.5595 -0.3091 0.9843, 3.6969 -0.4921 0.9843, 3.3917 0.374 0.0, 3.3031 0.4921 0.0, 3.3917 0.374 0.1969, 3.3031 0.4921 0.9843, 3.4803 0.2559 0.1969, 3.4803 0.2559 0.9843, 3.5197 0.2559 0.9843, 3.5197 0.2559 0.1969, 3.5 0.2559 0.9843, 3.5 0.2559 0.1969, 3.6969 0.4921 0.0, 3.6083 0.374 0.0, 3.6083 0.374 0.1969, 3.6969 0.4921 0.9843, 0.4803 -0.2559 0.9843, 0.4803 -0.2559 0.1969, 0.5 -0.2559 0.9843, 0.5 -0.2559 0.1969, 0.5197 -0.2559 0.9843, 0.5197 -0.2559 0.1969, 0.3031 -0.4921 0.9843, 0.3031 -0.4921 0.0, 0.3917 -0.374 0.1969, 0.3917 -0.374 0.0, 0.4405 -0.3091 0.9843, 0.6083 -0.374 0.1969, 0.6083 -0.374 0.0, 0.6969 -0.4921 0.0, 0.5595 -0.3091 0.9843, 0.6969 -0.4921 0.9843, 0.3917 0.374 0.0, 0.3031 0.4921 0.0, 0.3917 0.374 0.1969, 0.3031 0.4921 0.9843, 0.4803 0.2559 0.1969, 0.4803 0.2559 0.9843, 0.5197 0.2559 0.9843, 0.5197 0.2559 0.1969, 0.5 0.2559 0.9843, 0.5 0.2559 0.1969, 0.6969 0.4921 0.0, 0.6083 0.374 0.0, 0.6083 0.374 0.1969, 0.6969 0.4921 0.9843, 1.5197 -0.2559 0.1969, 1.5197 -0.2559 0.9843, 1.5 -0.2559 0.1969, 1.4803 -0.2559 0.9843, 1.4803 -0.2559 0.1969, 1.3031 -0.4921 0.9843, 1.3031 -0.4921 0.0, 1.3917 -0.374 0.1969, 1.3917 -0.374 0.0, 1.4405 -0.3091 0.9843, 1.6083 -0.374 0.1969, 1.6083 -0.374 0.0, 1.6969 -0.4921 0.0, 1.5595 -0.3091 0.9843, 1.6969 -0.4921 0.9843, 1.3917 0.374 0.0, 1.3031 0.4921 0.0, 1.3917 0.374 0.1969, 1.3031 0.4921 0.9843, 1.4803 0.2559 0.1969, 1.4803 0.2559 0.9843, 1.5 0.2559 0.1969, 1.5197 0.2559 0.9843, 1.5197 0.2559 0.1969, 1.6969 0.4921 0.0, 1.6083 0.374 0.0, 1.6083 0.374 0.1969, 1.6969 0.4921 0.9843, 1.6969 0.4921 0.9843
            ]
        }
        coordIndex [
            0,1,2,-1,3,4,2,-1,2,4,5,-1,2,5,0,-1,6,7,8,-1,8,7,9,-1,8,9,10,-1,10,9,11,-1,12,13,14,-1,14,13,15,-1,12,14,16,-1,16,14,7,-1,16,7,6,-1,17,18,19,-1,10,11,20,-1,20,11,17,-1,20,17,21,-1,21,17,19,-1,22,23,24,-1,24,23,25,-1,24,25,26,-1,26,25,27,-1,28,29,30,-1,30,29,31,-1,30,31,27,-1,27,31,26,-1,32,33,34,-1,29,28,34,-1,34,28,35,-1,34,35,32,-1,36,37,38,-1,39,40,41,-1,41,40,36,-1,41,36,42,-1,42,36,38,-1,43,44,39,-1,39,44,40,-1,45,46,47,-1,47,46,48,-1,49,50,51,-1,51,50,52,-1,51,52,53,-1,49,51,54,-1,54,51,46,-1,54,46,45,-1,55,56,57,-1,57,56,58,-1,57,58,59,-1,60,61,62,-1,62,61,63,-1,60,62,64,-1,64,62,56,-1,64,56,55,-1,65,66,67,-1,59,58,68,-1,68,58,65,-1,68,65,69,-1,69,65,67,-1,70,71,72,-1,72,71,73,-1,72,73,74,-1,74,73,75,-1,76,77,78,-1,78,77,74,-1,78,74,75,-1,79,80,81,-1,77,76,81,-1,81,76,82,-1,81,82,79,-1,83,84,85,-1,85,84,86,-1,85,86,87,-1,87,86,88,-1,89,90,91,-1,91,90,92,-1,89,91,93,-1,93,91,84,-1,93,84,83,-1,94,95,96,-1,87,88,97,-1,97,88,94,-1,97,94,98,-1,98,94,96,-1,99,100,101,-1,101,100,102,-1,101,102,103,-1,103,102,104,-1,105,106,107,-1,107,106,108,-1,107,108,104,-1,104,108,103,-1,109,110,111,-1,106,105,111,-1,111,105,112,-1,111,112,109,-1,113,114,115,-1,116,117,118,-1,118,117,113,-1,118,113,119,-1,119,113,115,-1,120,121,122,-1,122,121,123,-1,122,123,124,-1,124,123,125,-1,126,127,128,-1,128,127,129,-1,126,128,130,-1,130,128,121,-1,130,121,120,-1,131,132,133,-1,124,125,134,-1,134,125,131,-1,134,131,135,-1,135,131,133,-1,136,137,138,-1,138,137,139,-1,138,139,140,-1,140,139,141,-1,142,143,144,-1,144,143,145,-1,144,145,141,-1,141,145,140,-1,146,147,148,-1,143,142,148,-1,148,142,149,-1,148,149,146,-1,150,151,152,-1,152,151,153,-1,152,153,154,-1,154,153,155,-1,156,157,158,-1,158,157,159,-1,156,158,160,-1,160,158,151,-1,160,151,150,-1,161,162,163,-1,154,155,164,-1,164,155,161,-1,164,161,165,-1,165,161,163,-1,166,167,168,-1,168,167,169,-1,168,169,170,-1,170,169,171,-1,172,173,174,-1,174,173,175,-1,174,175,171,-1,171,175,170,-1,176,177,178,-1,173,172,178,-1,178,172,179,-1,178,179,176,-1,180,181,182,-1,182,181,183,-1,182,183,184,-1,184,183,185,-1,186,187,188,-1,188,187,189,-1,186,188,190,-1,190,188,181,-1,190,181,180,-1,191,192,193,-1,184,185,194,-1,194,185,191,-1,194,191,195,-1,195,191,193,-1,196,197,198,-1,198,197,199,-1,198,199,200,-1,200,199,201,-1,202,203,204,-1,204,203,205,-1,204,205,201,-1,201,205,200,-1,206,207,208,-1,203,202,208,-1,208,202,209,-1,208,209,206,-1,210,211,212,-1,212,211,213,-1,212,213,214,-1,214,213,215,-1,216,217,218,-1,218,217,219,-1,216,218,220,-1,220,218,211,-1,220,211,210,-1,221,222,223,-1,214,215,224,-1,224,215,221,-1,224,221,225,-1,225,221,223,-1,226,227,228,-1,228,227,229,-1,228,229,230,-1,230,229,231,-1,232,233,234,-1,234,233,235,-1,234,235,231,-1,231,235,230,-1,236,237,238,-1,233,232,238,-1,238,232,239,-1,238,239,236,-1,240,241,242,-1,242,241,243,-1,242,243,244,-1,244,243,245,-1,246,247,248,-1,248,247,249,-1,246,248,250,-1,250,248,241,-1,250,241,240,-1,251,252,253,-1,244,245,254,-1,254,245,251,-1,254,251,255,-1,255,251,253,-1,256,257,258,-1,258,257,259,-1,258,259,260,-1,260,259,261,-1,262,263,264,-1,264,263,265,-1,264,265,261,-1,261,265,260,-1,266,267,268,-1,263,262,268,-1,268,262,269,-1,268,269,266,-1,270,271,272,-1,272,271,273,-1,272,273,274,-1,275,276,277,-1,277,276,278,-1,275,277,279,-1,279,277,274,-1,279,274,273,-1,280,281,282,-1,271,270,283,-1,283,270,280,-1,283,280,284,-1,284,280,282,-1,285,286,287,-1,287,286,288,-1,287,288,289,-1,289,288,290,-1,289,290,291,-1,291,290,292,-1,291,292,293,-1,294,295,296,-1,293,292,296,-1,296,292,297,-1,296,297,294,-1,
        ]
    }
}
Shape{
    appearance Appearance {
        material  Material 	{
            diffuseColor 0.7529411764705882 0.7529411764705882 0.7529411764705882
            specularColor 0.3764705882352941 0.3764705882352941 0.3764705882352941
            ambientIntensity 0.2
            transparency 0
            shininess 0.5
        }
    }
    geometry IndexedFaceSet {
        ccw TRUE
        solid FALSE
        coord DEF co Coordinate {
            point [
                -4.126 0.0472 -1.1811, -4.126 0.126 -1.1024, -3.874 0.0472 -1.1811, -3.874 0.126 -1.1024, -4.126 -0.0472 -1.1811, -3.874 -0.0472 -1.1811, -4.126 -0.126 -1.1024, -3.874 -0.126 -1.1024, -3.874 0.126 0.1969, -3.874 -0.126 0.1969, -4.126 0.126 0.1969, -4.126 -0.126 0.1969, -3.874 -0.126 0.9843, -3.874 -0.126 3.2677, -4.126 -0.126 0.9843, -4.126 -0.126 3.2677, -4.126 0.126 0.9843, -4.126 0.126 3.2677, -3.874 0.126 0.9843, -3.874 0.126 3.2677, -4.126 -0.0472 3.3465, -4.126 0.0472 3.3465, -3.874 -0.0472 3.3465, -3.874 0.0472 3.3465, -3.126 0.0472 -1.1811, -3.126 0.126 -1.1024, -2.874 0.0472 -1.1811, -2.874 0.126 -1.1024, -3.126 -0.0472 -1.1811, -2.874 -0.0472 -1.1811, -3.126 -0.126 -1.1024, -2.874 -0.126 -1.1024, -2.874 0.126 0.1969, -2.874 -0.126 0.1969, -3.126 0.126 0.1969, -3.126 -0.126 0.1969, -2.874 -0.126 0.9843, -2.874 -0.126 3.2677, -3.126 -0.126 0.9843, -3.126 -0.126 3.2677, -3.126 0.126 0.9843, -3.126 0.126 3.2677, -2.874 0.126 0.9843, -2.874 0.126 3.2677, -3.126 -0.0472 3.3465, -3.126 0.0472 3.3465, -2.874 -0.0472 3.3465, -2.874 0.0472 3.3465, -2.126 0.0472 -1.1811, -2.126 0.126 -1.1024, -1.874 0.0472 -1.1811, -1.874 0.126 -1.1024, -2.126 -0.0472 -1.1811, -1.874 -0.0472 -1.1811, -2.126 -0.126 -1.1024, -1.874 -0.126 -1.1024, -1.874 0.126 0.1969, -1.874 -0.126 0.1969, -2.126 0.126 0.1969, -2.126 -0.126 0.1969, -1.874 -0.126 0.9843, -1.874 -0.126 3.2677, -2.126 -0.126 0.9843, -2.126 -0.126 3.2677, -2.126 0.126 0.9843, -2.126 0.126 3.2677, -1.874 0.126 0.9843, -1.874 0.126 3.2677, -2.126 -0.0472 3.3465, -2.126 0.0472 3.3465, -1.874 -0.0472 3.3465, -1.874 0.0472 3.3465, -1.126 0.0472 -1.1811, -1.126 0.126 -1.1024, -0.874 0.0472 -1.1811, -0.874 0.126 -1.1024, -1.126 -0.0472 -1.1811, -0.874 -0.0472 -1.1811, -1.126 -0.126 -1.1024, -0.874 -0.126 -1.1024, -0.874 0.126 0.1969, -0.874 -0.126 0.1969, -1.126 0.126 0.1969, -1.126 -0.126 0.1969, -0.874 -0.126 0.9843, -0.874 -0.126 3.2677, -1.126 -0.126 0.9843, -1.126 -0.126 3.2677, -1.126 0.126 0.9843, -1.126 0.126 3.2677, -0.874 0.126 0.9843, -0.874 0.126 3.2677, -1.126 -0.0472 3.3465, -1.126 0.0472 3.3465, -0.874 -0.0472 3.3465, -0.874 0.0472 3.3465, -0.126 0.0472 -1.1811, -0.126 0.126 -1.1024, 0.126 0.0472 -1.1811, 0.126 0.126 -1.1024, -0.126 -0.0472 -1.1811, 0.126 -0.0472 -1.1811, -0.126 -0.126 -1.1024, 0.126 -0.126 -1.1024, 0.126 0.126 0.1969, 0.126 -0.126 0.1969, -0.126 0.126 0.1969, -0.126 -0.126 0.1969, 0.126 -0.126 0.9843, 0.126 -0.126 3.2677, -0.126 -0.126 0.9843, -0.126 -0.126 3.2677, -0.126 0.126 0.9843, -0.126 0.126 3.2677, 0.126 0.126 0.9843, 0.126 0.126 3.2677, -0.126 -0.0472 3.3465, -0.126 0.0472 3.3465, 0.126 -0.0472 3.3465, 0.126 0.0472 3.3465, 0.874 0.0472 -1.1811, 0.874 0.126 -1.1024, 1.126 0.0472 -1.1811, 1.126 0.126 -1.1024, 0.874 -0.0472 -1.1811, 1.126 -0.0472 -1.1811, 0.874 -0.126 -1.1024, 1.126 -0.126 -1.1024, 1.126 0.126 0.1969, 1.126 -0.126 0.1969, 0.874 0.126 0.1969, 0.874 -0.126 0.1969, 1.126 -0.126 0.9843, 1.126 -0.126 3.2677, 0.874 -0.126 0.9843, 0.874 -0.126 3.2677, 0.874 0.126 0.9843, 0.874 0.126 3.2677, 1.126 0.126 0.9843, 1.126 0.126 3.2677, 0.874 -0.0472 3.3465, 0.874 0.0472 3.3465, 1.126 -0.0472 3.3465, 1.126 0.0472 3.3465, 1.874 0.0472 -1.1811, 1.874 0.126 -1.1024, 2.126 0.0472 -1.1811, 2.126 0.126 -1.1024, 1.874 -0.0472 -1.1811, 2.126 -0.0472 -1.1811, 1.874 -0.126 -1.1024, 2.126 -0.126 -1.1024, 2.126 0.126 0.1969, 2.126 -0.126 0.1969, 1.874 0.126 0.1969, 1.874 -0.126 0.1969, 2.126 -0.126 0.9843, 2.126 -0.126 3.2677, 1.874 -0.126 0.9843, 1.874 -0.126 3.2677, 1.874 0.126 0.9843, 1.874 0.126 3.2677, 2.126 0.126 0.9843, 2.126 0.126 3.2677, 1.874 -0.0472 3.3465, 1.874 0.0472 3.3465, 2.126 -0.0472 3.3465, 2.126 0.0472 3.3465, 2.874 0.0472 -1.1811, 2.874 0.126 -1.1024, 3.126 0.0472 -1.1811, 3.126 0.126 -1.1024, 2.874 -0.0472 -1.1811, 3.126 -0.0472 -1.1811, 2.874 -0.126 -1.1024, 3.126 -0.126 -1.1024, 3.126 0.126 0.1969, 3.126 -0.126 0.1969, 2.874 0.126 0.1969, 2.874 -0.126 0.1969, 3.126 -0.126 0.9843, 3.126 -0.126 3.2677, 2.874 -0.126 0.9843, 2.874 -0.126 3.2677, 2.874 0.126 0.9843, 2.874 0.126 3.2677, 3.126 0.126 0.9843, 3.126 0.126 3.2677, 2.874 -0.0472 3.3465, 2.874 0.0472 3.3465, 3.126 -0.0472 3.3465, 3.126 0.0472 3.3465, 3.874 0.0472 -1.1811, 3.874 0.126 -1.1024, 4.126 0.0472 -1.1811, 4.126 0.126 -1.1024, 3.874 -0.0472 -1.1811, 4.126 -0.0472 -1.1811, 3.874 -0.126 -1.1024, 4.126 -0.126 -1.1024, 4.126 0.126 0.1969, 4.126 -0.126 0.1969, 3.874 0.126 0.1969, 3.874 -0.126 0.1969, 4.126 -0.126 0.9843, 4.126 -0.126 3.2677, 3.874 -0.126 0.9843, 3.874 -0.126 3.2677, 3.874 0.126 0.9843, 3.874 0.126 3.2677, 4.126 0.126 0.9843, 4.126 0.126 3.2677, 3.874 -0.0472 3.3465, 3.874 0.0472 3.3465, 4.126 -0.0472 3.3465, 4.126 0.0472 3.3465, 4.874 0.0472 -1.1811, 4.874 0.126 -1.1024, 5.126 0.0472 -1.1811, 5.126 0.126 -1.1024, 4.874 -0.0472 -1.1811, 5.126 -0.0472 -1.1811, 4.874 -0.126 -1.1024, 5.126 -0.126 -1.1024, 5.126 0.126 0.1969, 5.126 -0.126 0.1969, 4.874 0.126 0.1969, 4.874 -0.126 0.1969, 5.126 -0.126 0.9843, 5.126 -0.126 3.2677, 4.874 -0.126 0.9843, 4.874 -0.126 3.2677, 4.874 0.126 0.9843, 4.874 0.126 3.2677, 5.126 0.126 0.9843, 5.126 0.126 3.2677, 4.874 -0.0472 3.3465, 4.874 0.0472 3.3465, 5.126 -0.0472 3.3465, 5.126 0.0472 3.3465, -0.7823 0.0516 0.2362, -0.7843 0.0516 0.2362, -0.7823 0.0516 0.1969, -0.7843 0.0516 0.1969, -0.857 -0.1059 0.2362, -0.857 -0.1059 0.1969, -0.8416 -0.1059 0.2362, -0.8416 -0.1059 0.1969, -0.8183 -0.0554 0.2362, -0.8183 -0.0554 0.1969, -0.7469 -0.0554 0.2362, -0.7469 -0.0554 0.1969, -0.723 -0.1059 0.2362, -0.723 -0.1059 0.1969, -0.7076 -0.1059 0.2362, -0.7076 -0.1059 0.1969, -0.8109 -0.0392 0.2362, -0.7546 -0.0392 0.2362, -0.7831 0.0209 0.2362, -0.8109 -0.0392 0.1969, -0.7831 0.0209 0.1969, -0.7546 -0.0392 0.1969, -0.607 -0.1059 0.2362, -0.5582 -0.1059 0.2362, -0.607 -0.1059 0.1969, -0.5582 -0.1059 0.1969, -0.5582 0.0516 0.2362, -0.5582 0.0516 0.1969, -0.59 0.0516 0.2362, -0.59 0.0516 0.1969, -0.6399 0.0459 0.2362, -0.6399 0.0459 0.1969, -0.6152 0.0506 0.1969, -0.6152 0.0506 0.2362, -0.6874 -0.0291 0.2362, -0.6874 -0.0291 0.1969, -0.6872 -0.0218 0.1969, -0.6872 -0.0218 0.2362, -0.684 -0.0028 0.1969, -0.684 -0.0028 0.2362, -0.6774 0.0137 0.1969, -0.6774 0.0137 0.2362, -0.6674 0.0279 0.1969, -0.6674 0.0279 0.2362, -0.6559 0.0379 0.1969, -0.6559 0.0379 0.2362, -0.6254 -0.1048 0.1969, -0.6254 -0.1048 0.2362, -0.6446 -0.1004 0.1969, -0.6446 -0.1004 0.2362, -0.6565 -0.0943 0.1969, -0.6565 -0.0943 0.2362, -0.6683 -0.0839 0.1969, -0.6683 -0.0839 0.2362, -0.679 -0.0677 0.1969, -0.679 -0.0677 0.2362, -0.6852 -0.0502 0.1969, -0.6852 -0.0502 0.2362, -0.6077 0.0347 0.2362, -0.6318 0.031 0.2362, -0.6388 0.0285 0.2362, -0.6506 0.0216 0.2362, -0.6597 0.0127 0.2362, -0.6669 0.0012 0.2362, -0.6715 -0.0124 0.2362, -0.6732 -0.0291 0.2362, -0.6731 -0.0335 0.2362, -0.6703 -0.0501 0.2362, -0.6651 -0.062 0.2362, -0.6573 -0.0724 0.2362, -0.6479 -0.0799 0.2362, -0.6354 -0.0857 0.2362, -0.613 -0.0891 0.2362, -0.5904 -0.0897 0.2362, -0.5723 -0.0897 0.2362, -0.5723 0.0355 0.2362, -0.5834 0.0355 0.2362, -0.5723 0.0355 0.1969, -0.5723 -0.0897 0.1969, -0.5834 0.0355 0.1969, -0.6077 0.0347 0.1969, -0.6318 0.031 0.1969, -0.6388 0.0285 0.1969, -0.6506 0.0216 0.1969, -0.6597 0.0127 0.1969, -0.6669 0.0012 0.1969, -0.6715 -0.0124 0.1969, -0.6732 -0.0291 0.1969, -0.6731 -0.0335 0.1969, -0.6703 -0.0501 0.1969, -0.6651 -0.062 0.1969, -0.6573 -0.0724 0.1969, -0.6479 -0.0799 0.1969, -0.6354 -0.0857 0.1969, -0.613 -0.0891 0.1969, -0.5904 -0.0897 0.1969, -0.4411 -0.1059 0.2362, -0.4411 0.0516 0.2362, -0.4411 -0.1059 0.1969, -0.4411 0.0516 0.1969, -0.5299 0.0516 0.2362, -0.5299 0.0516 0.1969, -0.5299 0.0355 0.2362, -0.5299 0.0355 0.1969, -0.4552 0.0355 0.2362, -0.4552 0.0355 0.1969, -0.4552 -0.013 0.2362, -0.4552 -0.013 0.1969, -0.5299 -0.013 0.2362, -0.5299 -0.013 0.1969, -0.5299 -0.0292 0.2362, -0.5299 -0.0292 0.1969, -0.4552 -0.0292 0.2362, -0.4552 -0.0292 0.1969, -0.4552 -0.0897 0.2362, -0.4552 -0.0897 0.1969, -0.5299 -0.0897 0.2362, -0.5299 -0.0897 0.1969, -0.5299 -0.1059 0.2362, -0.5299 -0.1059 0.1969, -0.4088 0.0227 0.2362, -0.4088 0.0227 0.1969, -0.4041 0.0285 0.1969, -0.4041 0.0285 0.2362, -0.3945 0.0377 0.1969, -0.3945 0.0377 0.2362, -0.3773 0.0481 0.1969, -0.3773 0.0481 0.2362, -0.363 0.053 0.1969, -0.363 0.053 0.2362, -0.34 0.0556 0.1969, -0.34 0.0556 0.2362, -0.3964 0.0132 0.2362, -0.3964 0.0132 0.1969, -0.3392 0.0395 0.2362, -0.3392 0.0395 0.1969, -0.3447 0.0393 0.1969, -0.3447 0.0393 0.2362, -0.3621 0.0363 0.1969, -0.3621 0.0363 0.2362, -0.369 0.0338 0.1969, -0.369 0.0338 0.2362, -0.3838 0.0255 0.1969, -0.3838 0.0255 0.2362, -0.2694 -0.0273 0.2362, -0.2694 -0.0273 0.1969, -0.2698 -0.0199 0.1969, -0.2698 -0.0199 0.2362, -0.2732 -0.0046 0.1969, -0.2732 -0.0046 0.2362, -0.2802 0.0094 0.1969, -0.2802 0.0094 0.2362, -0.29 0.0208 0.1969, -0.29 0.0208 0.2362, -0.3045 0.031 0.1969, -0.3045 0.031 0.2362, -0.3205 0.0372 0.1969, -0.3205 0.0372 0.2362, -0.3401 -0.0938 0.2362, -0.3401 -0.0938 0.1969, -0.3276 -0.0929 0.1969, -0.3276 -0.0929 0.2362, -0.3116 -0.0888 0.1969, -0.3116 -0.0888 0.2362, -0.2964 -0.0805 0.1969, -0.2964 -0.0805 0.2362, -0.285 -0.0701 0.1969, -0.285 -0.0701 0.2362, -0.2765 -0.0577 0.1969, -0.2765 -0.0577 0.2362, -0.2715 -0.0446 0.1969, -0.2715 -0.0446 0.2362, -0.3964 -0.0675 0.2362, -0.3964 -0.0675 0.1969, -0.3877 -0.0763 0.1969, -0.3877 -0.0763 0.2362, -0.3737 -0.0859 0.1969, -0.3737 -0.0859 0.2362, -0.3586 -0.0916 0.1969, -0.3586 -0.0916 0.2362, -0.4088 -0.0769 0.2362, -0.4088 -0.0769 0.1969, -0.3402 -0.1099 0.2362, -0.3402 -0.1099 0.1969, -0.3481 -0.1096 0.1969, -0.3481 -0.1096 0.2362, -0.3606 -0.1078 0.1969, -0.3606 -0.1078 0.2362, -0.3786 -0.1017 0.1969, -0.3786 -0.1017 0.2362, -0.3949 -0.0915 0.1969, -0.3949 -0.0915 0.2362, -0.2753 -0.0824 0.2362, -0.2753 -0.0824 0.1969, -0.2816 -0.0889 0.1969, -0.2816 -0.0889 0.2362, -0.2968 -0.0999 0.1969, -0.2968 -0.0999 0.2362, -0.3157 -0.1071 0.1969, -0.3157 -0.1071 0.2362, -0.2553 -0.0262 0.2362, -0.2553 -0.0262 0.1969, -0.2575 -0.047 0.1969, -0.2575 -0.047 0.2362, -0.2638 -0.0651 0.1969, -0.2638 -0.0651 0.2362, -0.3275 0.0549 0.1969, -0.3275 0.0549 0.2362, -0.3082 0.0503 0.1969, -0.3082 0.0503 0.2362, -0.2916 0.0419 0.1969, -0.2916 0.0419 0.2362, -0.2752 0.0275 0.1969, -0.2752 0.0275 0.2362, -0.2643 0.012 0.1969, -0.2643 0.012 0.2362, -0.2579 -0.0047 0.1969, -0.2579 -0.0047 0.2362, -0.1624 -0.1059 0.2362, -0.1624 0.0516 0.2362, -0.1624 -0.1059 0.1969, -0.1624 0.0516 0.1969, -0.1766 0.0516 0.2362, -0.1766 0.0516 0.1969, -0.1766 -0.0897 0.2362, -0.1766 -0.0897 0.1969, -0.2371 -0.0897 0.2362, -0.2371 -0.0897 0.1969, -0.2371 -0.1059 0.2362, -0.2371 -0.1059 0.1969, -0.2371 -0.1059 0.1969
            ]
        }
        coordIndex [
            0,1,2,-1,2,1,3,-1,4,0,5,-1,5,0,2,-1,6,4,7,-1,7,4,5,-1,8,9,3,-1,3,9,7,-1,3,7,2,-1,2,7,5,-1,0,4,1,-1,1,4,6,-1,1,6,10,-1,10,6,11,-1,8,3,10,-1,10,3,1,-1,11,6,9,-1,9,6,7,-1,12,13,14,-1,14,13,15,-1,16,17,18,-1,18,17,19,-1,20,21,15,-1,15,21,17,-1,15,17,14,-1,14,17,16,-1,12,18,13,-1,13,18,19,-1,13,19,22,-1,22,19,23,-1,20,15,22,-1,22,15,13,-1,21,20,23,-1,23,20,22,-1,17,21,19,-1,19,21,23,-1,24,25,26,-1,26,25,27,-1,28,24,29,-1,29,24,26,-1,30,28,31,-1,31,28,29,-1,32,33,27,-1,27,33,31,-1,27,31,26,-1,26,31,29,-1,24,28,25,-1,25,28,30,-1,25,30,34,-1,34,30,35,-1,32,27,34,-1,34,27,25,-1,35,30,33,-1,33,30,31,-1,36,37,38,-1,38,37,39,-1,40,41,42,-1,42,41,43,-1,44,45,39,-1,39,45,41,-1,39,41,38,-1,38,41,40,-1,36,42,37,-1,37,42,43,-1,37,43,46,-1,46,43,47,-1,44,39,46,-1,46,39,37,-1,45,44,47,-1,47,44,46,-1,41,45,43,-1,43,45,47,-1,48,49,50,-1,50,49,51,-1,52,48,53,-1,53,48,50,-1,54,52,55,-1,55,52,53,-1,56,57,51,-1,51,57,55,-1,51,55,50,-1,50,55,53,-1,48,52,49,-1,49,52,54,-1,49,54,58,-1,58,54,59,-1,56,51,58,-1,58,51,49,-1,59,54,57,-1,57,54,55,-1,60,61,62,-1,62,61,63,-1,64,65,66,-1,66,65,67,-1,68,69,63,-1,63,69,65,-1,63,65,62,-1,62,65,64,-1,60,66,61,-1,61,66,67,-1,61,67,70,-1,70,67,71,-1,68,63,70,-1,70,63,61,-1,69,68,71,-1,71,68,70,-1,65,69,67,-1,67,69,71,-1,72,73,74,-1,74,73,75,-1,76,72,77,-1,77,72,74,-1,78,76,79,-1,79,76,77,-1,80,81,75,-1,75,81,79,-1,75,79,74,-1,74,79,77,-1,72,76,73,-1,73,76,78,-1,73,78,82,-1,82,78,83,-1,80,75,82,-1,82,75,73,-1,83,78,81,-1,81,78,79,-1,84,85,86,-1,86,85,87,-1,88,89,90,-1,90,89,91,-1,92,93,87,-1,87,93,89,-1,87,89,86,-1,86,89,88,-1,84,90,85,-1,85,90,91,-1,85,91,94,-1,94,91,95,-1,92,87,94,-1,94,87,85,-1,93,92,95,-1,95,92,94,-1,89,93,91,-1,91,93,95,-1,96,97,98,-1,98,97,99,-1,100,96,101,-1,101,96,98,-1,102,100,103,-1,103,100,101,-1,104,105,99,-1,99,105,103,-1,99,103,98,-1,98,103,101,-1,96,100,97,-1,97,100,102,-1,97,102,106,-1,106,102,107,-1,104,99,106,-1,106,99,97,-1,107,102,105,-1,105,102,103,-1,108,109,110,-1,110,109,111,-1,112,113,114,-1,114,113,115,-1,116,117,111,-1,111,117,113,-1,111,113,110,-1,110,113,112,-1,108,114,109,-1,109,114,115,-1,109,115,118,-1,118,115,119,-1,116,111,118,-1,118,111,109,-1,117,116,119,-1,119,116,118,-1,113,117,115,-1,115,117,119,-1,120,121,122,-1,122,121,123,-1,124,120,125,-1,125,120,122,-1,126,124,127,-1,127,124,125,-1,128,129,123,-1,123,129,127,-1,123,127,122,-1,122,127,125,-1,120,124,121,-1,121,124,126,-1,121,126,130,-1,130,126,131,-1,128,123,130,-1,130,123,121,-1,131,126,129,-1,129,126,127,-1,132,133,134,-1,134,133,135,-1,136,137,138,-1,138,137,139,-1,140,141,135,-1,135,141,137,-1,135,137,134,-1,134,137,136,-1,132,138,133,-1,133,138,139,-1,133,139,142,-1,142,139,143,-1,140,135,142,-1,142,135,133,-1,141,140,143,-1,143,140,142,-1,137,141,139,-1,139,141,143,-1,144,145,146,-1,146,145,147,-1,148,144,149,-1,149,144,146,-1,150,148,151,-1,151,148,149,-1,152,153,147,-1,147,153,151,-1,147,151,146,-1,146,151,149,-1,144,148,145,-1,145,148,150,-1,145,150,154,-1,154,150,155,-1,152,147,154,-1,154,147,145,-1,155,150,153,-1,153,150,151,-1,156,157,158,-1,158,157,159,-1,160,161,162,-1,162,161,163,-1,164,165,159,-1,159,165,161,-1,159,161,158,-1,158,161,160,-1,156,162,157,-1,157,162,163,-1,157,163,166,-1,166,163,167,-1,164,159,166,-1,166,159,157,-1,165,164,167,-1,167,164,166,-1,161,165,163,-1,163,165,167,-1,168,169,170,-1,170,169,171,-1,172,168,173,-1,173,168,170,-1,174,172,175,-1,175,172,173,-1,176,177,171,-1,171,177,175,-1,171,175,170,-1,170,175,173,-1,168,172,169,-1,169,172,174,-1,169,174,178,-1,178,174,179,-1,176,171,178,-1,178,171,169,-1,179,174,177,-1,177,174,175,-1,180,181,182,-1,182,181,183,-1,184,185,186,-1,186,185,187,-1,188,189,183,-1,183,189,185,-1,183,185,182,-1,182,185,184,-1,180,186,181,-1,181,186,187,-1,181,187,190,-1,190,187,191,-1,188,183,190,-1,190,183,181,-1,189,188,191,-1,191,188,190,-1,185,189,187,-1,187,189,191,-1,192,193,194,-1,194,193,195,-1,196,192,197,-1,197,192,194,-1,198,196,199,-1,199,196,197,-1,200,201,195,-1,195,201,199,-1,195,199,194,-1,194,199,197,-1,192,196,193,-1,193,196,198,-1,193,198,202,-1,202,198,203,-1,200,195,202,-1,202,195,193,-1,203,198,201,-1,201,198,199,-1,204,205,206,-1,206,205,207,-1,208,209,210,-1,210,209,211,-1,212,213,207,-1,207,213,209,-1,207,209,206,-1,206,209,208,-1,204,210,205,-1,205,210,211,-1,205,211,214,-1,214,211,215,-1,212,207,214,-1,214,207,205,-1,213,212,215,-1,215,212,214,-1,209,213,211,-1,211,213,215,-1,216,217,218,-1,218,217,219,-1,220,216,221,-1,221,216,218,-1,222,220,223,-1,223,220,221,-1,224,225,219,-1,219,225,223,-1,219,223,218,-1,218,223,221,-1,216,220,217,-1,217,220,222,-1,217,222,226,-1,226,222,227,-1,224,219,226,-1,226,219,217,-1,227,222,225,-1,225,222,223,-1,228,229,230,-1,230,229,231,-1,232,233,234,-1,234,233,235,-1,236,237,231,-1,231,237,233,-1,231,233,230,-1,230,233,232,-1,228,234,229,-1,229,234,235,-1,229,235,238,-1,238,235,239,-1,236,231,238,-1,238,231,229,-1,237,236,239,-1,239,236,238,-1,233,237,235,-1,235,237,239,-1,240,241,242,-1,242,241,243,-1,241,244,243,-1,243,244,245,-1,244,246,245,-1,245,246,247,-1,246,248,247,-1,247,248,249,-1,248,250,249,-1,249,250,251,-1,250,252,251,-1,251,252,253,-1,252,254,253,-1,253,254,255,-1,254,240,255,-1,255,240,242,-1,256,244,241,-1,240,257,241,-1,241,257,258,-1,241,258,256,-1,254,252,250,-1,246,244,248,-1,248,244,256,-1,248,256,250,-1,250,256,257,-1,250,257,254,-1,254,257,240,-1,256,258,259,-1,259,258,260,-1,257,256,261,-1,261,256,259,-1,258,257,260,-1,260,257,261,-1,262,263,264,-1,264,263,265,-1,263,266,265,-1,265,266,267,-1,266,268,267,-1,267,268,269,-1,270,271,272,-1,270,272,273,-1,273,272,269,-1,273,269,268,-1,274,275,276,-1,274,276,277,-1,277,276,278,-1,277,278,279,-1,279,278,280,-1,279,280,281,-1,281,280,282,-1,281,282,283,-1,283,282,284,-1,283,284,285,-1,285,284,271,-1,285,271,270,-1,262,264,286,-1,262,286,287,-1,287,286,288,-1,287,288,289,-1,289,288,290,-1,289,290,291,-1,291,290,292,-1,291,292,293,-1,293,292,294,-1,293,294,295,-1,295,294,296,-1,295,296,297,-1,297,296,275,-1,297,275,274,-1,298,299,270,-1,270,299,300,-1,270,300,285,-1,285,300,301,-1,285,301,283,-1,283,301,302,-1,283,302,281,-1,281,302,303,-1,281,303,279,-1,279,303,304,-1,279,304,277,-1,277,304,305,-1,277,305,274,-1,274,305,306,-1,274,306,297,-1,297,306,307,-1,297,307,295,-1,295,307,308,-1,295,308,293,-1,293,308,309,-1,293,309,291,-1,291,309,310,-1,291,310,289,-1,289,310,311,-1,289,311,287,-1,287,311,312,-1,287,312,262,-1,262,312,313,-1,262,313,263,-1,263,313,314,-1,263,314,266,-1,266,314,315,-1,266,315,268,-1,268,315,316,-1,268,316,273,-1,273,316,298,-1,273,298,270,-1,315,314,317,-1,317,314,318,-1,316,315,319,-1,319,315,317,-1,316,319,320,-1,316,320,298,-1,298,320,321,-1,298,321,299,-1,299,321,322,-1,299,322,300,-1,300,322,323,-1,300,323,301,-1,301,323,324,-1,301,324,302,-1,302,324,325,-1,302,325,303,-1,303,325,326,-1,303,326,304,-1,304,326,327,-1,304,327,305,-1,305,327,328,-1,305,328,306,-1,306,328,329,-1,306,329,307,-1,307,329,330,-1,307,330,308,-1,308,330,331,-1,308,331,309,-1,309,331,332,-1,309,332,310,-1,310,332,333,-1,310,333,311,-1,311,333,334,-1,311,334,312,-1,312,334,335,-1,312,335,313,-1,314,313,318,-1,318,313,335,-1,336,337,338,-1,338,337,339,-1,337,340,339,-1,339,340,341,-1,340,342,341,-1,341,342,343,-1,342,344,343,-1,343,344,345,-1,344,346,345,-1,345,346,347,-1,346,348,347,-1,347,348,349,-1,348,350,349,-1,349,350,351,-1,350,352,351,-1,351,352,353,-1,352,354,353,-1,353,354,355,-1,354,356,355,-1,355,356,357,-1,356,358,357,-1,357,358,359,-1,358,336,359,-1,359,336,338,-1,336,358,356,-1,356,354,336,-1,336,354,352,-1,336,352,337,-1,342,340,344,-1,344,340,337,-1,344,337,346,-1,346,337,352,-1,346,352,348,-1,348,352,350,-1,360,361,362,-1,360,362,363,-1,363,362,364,-1,363,364,365,-1,365,364,366,-1,365,366,367,-1,367,366,368,-1,367,368,369,-1,369,368,370,-1,369,370,371,-1,360,372,361,-1,361,372,373,-1,374,375,376,-1,374,376,377,-1,377,376,378,-1,377,378,379,-1,379,378,380,-1,379,380,381,-1,381,380,382,-1,381,382,383,-1,383,382,373,-1,383,373,372,-1,384,385,386,-1,384,386,387,-1,387,386,388,-1,387,388,389,-1,389,388,390,-1,389,390,391,-1,391,390,392,-1,391,392,393,-1,393,392,394,-1,393,394,395,-1,395,394,396,-1,395,396,397,-1,397,396,375,-1,397,375,374,-1,398,399,400,-1,398,400,401,-1,401,400,402,-1,401,402,403,-1,403,402,404,-1,403,404,405,-1,405,404,406,-1,405,406,407,-1,407,406,408,-1,407,408,409,-1,409,408,410,-1,409,410,411,-1,411,410,385,-1,411,385,384,-1,412,413,414,-1,412,414,415,-1,415,414,416,-1,415,416,417,-1,417,416,418,-1,417,418,419,-1,419,418,399,-1,419,399,398,-1,412,420,413,-1,413,420,421,-1,422,423,424,-1,422,424,425,-1,425,424,426,-1,425,426,427,-1,427,426,428,-1,427,428,429,-1,429,428,430,-1,429,430,431,-1,431,430,421,-1,431,421,420,-1,432,433,434,-1,432,434,435,-1,435,434,436,-1,435,436,437,-1,437,436,438,-1,437,438,439,-1,439,438,423,-1,439,423,422,-1,440,441,442,-1,440,442,443,-1,443,442,444,-1,443,444,445,-1,445,444,433,-1,445,433,432,-1,371,370,446,-1,371,446,447,-1,447,446,448,-1,447,448,449,-1,449,448,450,-1,449,450,451,-1,451,450,452,-1,451,452,453,-1,453,452,454,-1,453,454,455,-1,455,454,456,-1,455,456,457,-1,457,456,441,-1,457,441,440,-1,372,360,363,-1,420,412,431,-1,431,412,415,-1,431,415,429,-1,429,415,417,-1,429,417,427,-1,427,417,419,-1,427,419,425,-1,425,419,398,-1,372,363,383,-1,383,363,365,-1,383,365,381,-1,381,365,367,-1,381,367,379,-1,379,367,369,-1,379,369,377,-1,377,369,371,-1,377,371,374,-1,374,371,447,-1,374,447,397,-1,397,447,449,-1,397,449,395,-1,395,449,451,-1,395,451,393,-1,393,451,453,-1,393,453,391,-1,391,453,455,-1,391,455,389,-1,389,455,457,-1,389,457,387,-1,387,457,440,-1,387,440,384,-1,384,440,411,-1,411,440,443,-1,411,443,409,-1,409,443,445,-1,409,445,407,-1,407,445,432,-1,407,432,405,-1,405,432,435,-1,405,435,403,-1,403,435,437,-1,403,437,401,-1,401,437,439,-1,401,439,398,-1,398,439,422,-1,398,422,425,-1,458,459,460,-1,460,459,461,-1,459,462,461,-1,461,462,463,-1,462,464,463,-1,463,464,465,-1,464,466,465,-1,465,466,467,-1,466,468,467,-1,467,468,469,-1,468,458,469,-1,469,458,460,-1,462,459,464,-1,464,459,458,-1,464,458,466,-1,466,458,468,-1,
        ]
    }
}
Shape{
    appearance Appearance {
        material  Material 	{
            diffuseColor 0.14901960784313725 0.14901960784313725 0.14901960784313725
            specularColor 0.07450980392156863 0.07450980392156863 0.07450980392156863
            ambientIntensity 0.2
            transparency 0
            shininess 0.5
        }
    }
    geometry IndexedFaceSet {
        ccw TRUE
        solid FALSE
        coord DEF co Coordinate {
            point [
                -0.7831 0.0209 0.1969, -0.7546 -0.0392 0.1969, -0.8109 -0.0392 0.1969, -0.5723 0.0355 0.1969, -0.5723 -0.0897 0.1969, -0.5834 0.0355 0.1969, -0.5904 -0.0897 0.1969, -0.6077 0.0347 0.1969, -0.613 -0.0891 0.1969, -0.6318 0.031 0.1969, -0.6651 -0.062 0.1969, -0.6703 -0.0501 0.1969, -0.6731 -0.0335 0.1969, -0.6732 -0.0291 0.1969, -0.6354 -0.0857 0.1969, -0.6479 -0.0799 0.1969, -0.6573 -0.0724 0.1969, -0.6715 -0.0124 0.1969, -0.6669 0.0012 0.1969, -0.6597 0.0127 0.1969, -0.6506 0.0216 0.1969, -0.6388 0.0285 0.1969, -0.6388 0.0285 0.1969
            ]
        }
        coordIndex [
            0,1,2,-1,3,4,5,-1,5,4,6,-1,5,6,7,-1,7,6,8,-1,7,8,9,-1,10,11,8,-1,8,11,12,-1,8,12,13,-1,14,15,8,-1,8,15,16,-1,8,16,10,-1,13,17,8,-1,8,17,18,-1,8,18,19,-1,19,20,8,-1,8,20,21,-1,8,21,9,-1,
        ]
    }
}